<svg width="680" height="300" xmlns="http://www.w3.org/2000/svg">
  <rect width="680" height="300" rx="12" fill="#161b22"/>
  <rect x="1" y="1" width="678" height="298" rx="11" fill="none" stroke="#f85149" stroke-width="1.5"/>

  <!-- header -->
  <text x="24" y="32" font-family="monospace" font-size="11" fill="#8b949e" letter-spacing="2">GITHUB TAMAGOTCHI</text>
  <text x="24" y="52" font-family="monospace" font-size="11" fill="#f85149">@AndreaBonn — TIRED</text>

  <!-- separator -->
  <line x1="24" y1="64" x2="656" y2="64" stroke="#30363d" stroke-width="1"/>

  <!-- tamagotchi screen -->
  <rect x="120" y="74" width="160" height="160" rx="16" fill="#0d1117" stroke="#f85149" stroke-width="1.5"/>

  <!-- character -->
  <g transform="translate(-80, 0)">
    
          <circle cx="200" cy="120" r="60" fill="#1c2128" stroke="#f85149" stroke-width="2"/>
          <!-- X eyes -->
          <line x1="177" y1="104" x2="189" y2="116" stroke="#f85149" stroke-width="3"/>
          <line x1="189" y1="104" x2="177" y2="116" stroke="#f85149" stroke-width="3"/>
          <line x1="211" y1="104" x2="223" y2="116" stroke="#f85149" stroke-width="3"/>
          <line x1="223" y1="104" x2="211" y2="116" stroke="#f85149" stroke-width="3"/>
          <path d="M183 138 Q200 125 217 138" fill="none" stroke="#f85149" stroke-width="3" stroke-linecap="round"/>
          <!-- tears -->
          <ellipse cx="183" cy="124" rx="3" ry="5" fill="#388bfd" opacity="0.7"/>
          <ellipse cx="217" cy="124" rx="3" ry="5" fill="#388bfd" opacity="0.7"/>
          <text x="140" y="85" font-size="16">💔</text>
        
  </g>

  <!-- days badge -->
  <rect x="300" y="80" width="120" height="40" rx="8" fill="#1c2128" stroke="#f85149" stroke-width="1"/>
  <text x="360" y="97" font-family="monospace" font-size="10" fill="#8b949e" text-anchor="middle">days without commit</text>
  <text x="360" y="114" font-family="monospace" font-size="22" fill="#f85149" text-anchor="middle" font-weight="bold">7</text>

  <!-- health bar -->
  <text x="300" y="144" font-family="monospace" font-size="10" fill="#8b949e">health</text>
  <rect x="300" y="150" width="340" height="8" rx="4" fill="#21262d"/>
  <rect x="300" y="150" width="186" height="8" rx="4" fill="#f85149"/>

  <!-- message -->
  <text x="340" y="230" font-family="monospace" font-size="13" fill="#f85149" text-anchor="middle" font-style="italic">i&#x27;m not okay... where did you go?</text>


  <!-- tamagotchi-style buttons -->
  <circle cx="300" cy="278" r="8" fill="#21262d" stroke="#f85149" stroke-width="1"/>
  <circle cx="340" cy="278" r="8" fill="#21262d" stroke="#f85149" stroke-width="1"/>
  <circle cx="380" cy="278" r="8" fill="#21262d" stroke="#f85149" stroke-width="1"/>

  <!-- footer -->
  <text x="656" y="291" font-family="monospace" font-size="10" fill="#484f58" text-anchor="end">commit to keep me alive</text>
</svg>