<svg xmlns="http://www.w3.org/2000/svg" viewBox="0 0 880 448" width="100%">
  <rect width="880" height="448" rx="10" fill="#0d1117"/>
  <rect x="1" y="1" width="878" height="446" rx="9" fill="none" stroke="#30363d" stroke-width="1.5"/>
  <rect x="1" y="1" width="878" height="26" rx="9" fill="#1c2128"/>
  <rect x="1" y="18" width="878" height="9" fill="#1c2128"/>
  <line x1="1" y1="27" x2="879" y2="27" stroke="#30363d" stroke-width="1"/>
  <circle cx="16" cy="14" r="3" fill="#e6861a" opacity="0.8"/>
  <circle cx="864" cy="14" r="3" fill="#e6861a" opacity="0.8"/>
  <text x="440" y="19" text-anchor="middle" font-family="monospace" font-size="11" fill="#8b949e" letter-spacing="4" font-weight="bold">TECH STACK</text>
  <text x="24" y="56" font-family="monospace" font-size="12" fill="#3fb950" letter-spacing="2" font-weight="bold">LANGUAGES</text>
  <line x1="24" y1="62" x2="856" y2="62" stroke="#3fb950" stroke-width="0.5" opacity="0.3"/>
  <rect x="102" y="66" width="87" height="28" rx="14" fill="#1a3a2a" stroke="#3fb950" stroke-width="0.8" opacity="0.9"/>
  <text x="145" y="85" text-anchor="middle" font-family="monospace" font-size="16" fill="#3fb950" font-weight="bold">Python</text>
  <rect x="197" y="66" width="121" height="28" rx="14" fill="#1a3a2a" stroke="#3fb950" stroke-width="0.8" opacity="0.9"/>
  <text x="257" y="85" text-anchor="middle" font-family="monospace" font-size="15" fill="#3fb950" font-weight="bold">JavaScript</text>
  <rect x="326" y="66" width="55" height="28" rx="14" fill="#1a3a2a" stroke="#3fb950" stroke-width="0.8" opacity="0.9"/>
  <text x="353" y="83" text-anchor="middle" font-family="monospace" font-size="11" fill="#3fb950" font-weight="normal">HTML</text>
  <rect x="389" y="66" width="62" height="28" rx="14" fill="#1a3a2a" stroke="#3fb950" stroke-width="0.8" opacity="0.9"/>
  <text x="420" y="83" text-anchor="middle" font-family="monospace" font-size="11" fill="#3fb950" font-weight="normal">Shell</text>
  <rect x="459" y="66" width="48" height="28" rx="14" fill="#1a3a2a" stroke="#3fb950" stroke-width="0.8" opacity="0.9"/>
  <text x="483" y="83" text-anchor="middle" font-family="monospace" font-size="11" fill="#3fb950" font-weight="normal">CSS</text>
  <rect x="515" y="66" width="96" height="28" rx="14" fill="#1a3a2a" stroke="#3fb950" stroke-width="0.8" opacity="0.9"/>
  <text x="563" y="83" text-anchor="middle" font-family="monospace" font-size="11" fill="#3fb950" font-weight="normal">PowerShell</text>
  <rect x="619" y="66" width="55" height="28" rx="14" fill="#1a3a2a" stroke="#3fb950" stroke-width="0.8" opacity="0.9"/>
  <text x="646" y="83" text-anchor="middle" font-family="monospace" font-size="11" fill="#3fb950" font-weight="normal">Make</text>
  <rect x="682" y="66" width="96" height="28" rx="14" fill="#1a3a2a" stroke="#3fb950" stroke-width="0.8" opacity="0.9"/>
  <text x="730" y="83" text-anchor="middle" font-family="monospace" font-size="11" fill="#3fb950" font-weight="normal">TypeScript</text>
  <text x="24" y="136" font-family="monospace" font-size="12" fill="#388bfd" letter-spacing="2" font-weight="bold">FRAMEWORK</text>
  <line x1="24" y1="142" x2="856" y2="142" stroke="#388bfd" stroke-width="0.5" opacity="0.3"/>
  <rect x="221" y="146" width="77" height="28" rx="14" fill="#1a2a3a" stroke="#388bfd" stroke-width="0.8" opacity="0.9"/>
  <text x="259" y="165" text-anchor="middle" font-family="monospace" font-size="16" fill="#388bfd" font-weight="bold">Flask</text>
  <rect x="306" y="146" width="62" height="28" rx="14" fill="#1a2a3a" stroke="#388bfd" stroke-width="0.8" opacity="0.9"/>
  <text x="337" y="163" text-anchor="middle" font-family="monospace" font-size="11" fill="#388bfd" font-weight="normal">React</text>
  <rect x="376" y="146" width="137" height="28" rx="14" fill="#1a2a3a" stroke="#388bfd" stroke-width="0.8" opacity="0.9"/>
  <text x="444" y="163" text-anchor="middle" font-family="monospace" font-size="11" fill="#388bfd" font-weight="normal">Telegram Bot API</text>
  <rect x="521" y="146" width="75" height="28" rx="14" fill="#1a2a3a" stroke="#388bfd" stroke-width="0.8" opacity="0.9"/>
  <text x="558" y="163" text-anchor="middle" font-family="monospace" font-size="11" fill="#388bfd" font-weight="normal">aiohttp</text>
  <rect x="604" y="146" width="55" height="28" rx="14" fill="#1a2a3a" stroke="#388bfd" stroke-width="0.8" opacity="0.9"/>
  <text x="631" y="163" text-anchor="middle" font-family="monospace" font-size="11" fill="#388bfd" font-weight="normal">Vite</text>
  <text x="24" y="216" font-family="monospace" font-size="12" fill="#e6861a" letter-spacing="2" font-weight="bold">AI / ML</text>
  <line x1="24" y1="222" x2="856" y2="222" stroke="#e6861a" stroke-width="0.5" opacity="0.3"/>
  <rect x="123" y="226" width="67" height="28" rx="14" fill="#3a2a1a" stroke="#e6861a" stroke-width="0.8" opacity="0.9"/>
  <text x="156" y="245" text-anchor="middle" font-family="monospace" font-size="16" fill="#e6861a" font-weight="bold">YOLO</text>
  <rect x="198" y="226" width="87" height="28" rx="14" fill="#3a2a1a" stroke="#e6861a" stroke-width="0.8" opacity="0.9"/>
  <text x="241" y="245" text-anchor="middle" font-family="monospace" font-size="16" fill="#e6861a" font-weight="bold">OpenCV</text>
  <rect x="293" y="226" width="77" height="28" rx="14" fill="#3a2a1a" stroke="#e6861a" stroke-width="0.8" opacity="0.9"/>
  <text x="331" y="245" text-anchor="middle" font-family="monospace" font-size="16" fill="#e6861a" font-weight="bold">NumPy</text>
  <rect x="378" y="226" width="68" height="28" rx="14" fill="#3a2a1a" stroke="#e6861a" stroke-width="0.8" opacity="0.9"/>
  <text x="412" y="243" text-anchor="middle" font-family="monospace" font-size="11" fill="#e6861a" font-weight="normal">Pillow</text>
  <rect x="454" y="226" width="41" height="28" rx="14" fill="#3a2a1a" stroke="#e6861a" stroke-width="0.8" opacity="0.9"/>
  <text x="474" y="243" text-anchor="middle" font-family="monospace" font-size="11" fill="#e6861a" font-weight="normal">AI</text>
  <rect x="503" y="226" width="130" height="28" rx="14" fill="#3a2a1a" stroke="#e6861a" stroke-width="0.8" opacity="0.9"/>
  <text x="568" y="243" text-anchor="middle" font-family="monospace" font-size="11" fill="#e6861a" font-weight="normal">Computer Vision</text>
  <rect x="641" y="226" width="116" height="28" rx="14" fill="#3a2a1a" stroke="#e6861a" stroke-width="0.8" opacity="0.9"/>
  <text x="699" y="243" text-anchor="middle" font-family="monospace" font-size="11" fill="#e6861a" font-weight="normal">Deep Learning</text>
  <text x="24" y="296" font-family="monospace" font-size="12" fill="#bc8cff" letter-spacing="2" font-weight="bold">DATABASE</text>
  <line x1="24" y1="302" x2="856" y2="302" stroke="#bc8cff" stroke-width="0.5" opacity="0.3"/>
  <rect x="386" y="306" width="107" height="28" rx="14" fill="#2a1a3a" stroke="#bc8cff" stroke-width="0.8" opacity="0.9"/>
  <text x="439" y="325" text-anchor="middle" font-family="monospace" font-size="16" fill="#bc8cff" font-weight="bold">Firebase</text>
  <text x="24" y="376" font-family="monospace" font-size="12" fill="#8b949e" letter-spacing="2" font-weight="bold">TOOLS</text>
  <line x1="24" y1="382" x2="856" y2="382" stroke="#8b949e" stroke-width="0.5" opacity="0.3"/>
  <rect x="154" y="386" width="57" height="28" rx="14" fill="#1c2128" stroke="#8b949e" stroke-width="0.8" opacity="0.9"/>
  <text x="182" y="405" text-anchor="middle" font-family="monospace" font-size="16" fill="#8b949e" font-weight="bold">Git</text>
  <rect x="219" y="386" width="140" height="28" rx="14" fill="#1c2128" stroke="#8b949e" stroke-width="0.8" opacity="0.9"/>
  <text x="289" y="404" text-anchor="middle" font-family="monospace" font-size="13" fill="#8b949e" font-weight="normal">GitHub Actions</text>
  <rect x="367" y="386" width="82" height="28" rx="14" fill="#1c2128" stroke="#8b949e" stroke-width="0.8" opacity="0.9"/>
  <text x="408" y="403" text-anchor="middle" font-family="monospace" font-size="11" fill="#8b949e" font-weight="normal">Requests</text>
  <rect x="457" y="386" width="68" height="28" rx="14" fill="#1c2128" stroke="#8b949e" stroke-width="0.8" opacity="0.9"/>
  <text x="491" y="403" text-anchor="middle" font-family="monospace" font-size="11" fill="#8b949e" font-weight="normal">ESLint</text>
  <rect x="533" y="386" width="116" height="28" rx="14" fill="#1c2128" stroke="#8b949e" stroke-width="0.8" opacity="0.9"/>
  <text x="591" y="403" text-anchor="middle" font-family="monospace" font-size="11" fill="#8b949e" font-weight="normal">BeautifulSoup</text>
  <rect x="657" y="386" width="68" height="28" rx="14" fill="#1c2128" stroke="#8b949e" stroke-width="0.8" opacity="0.9"/>
  <text x="691" y="403" text-anchor="middle" font-family="monospace" font-size="11" fill="#8b949e" font-weight="normal">Pytest</text>
</svg>