<svg xmlns="http://www.w3.org/2000/svg" viewBox="0 0 880 448" width="100%">
  <rect width="880" height="448" rx="10" fill="#0d1117"/>
  <rect x="1" y="1" width="878" height="446" rx="9" fill="none" stroke="#30363d" stroke-width="1.5"/>
  <rect x="1" y="1" width="878" height="26" rx="9" fill="#1c2128"/>
  <rect x="1" y="18" width="878" height="9" fill="#1c2128"/>
  <line x1="1" y1="27" x2="879" y2="27" stroke="#30363d" stroke-width="1"/>
  <circle cx="16" cy="14" r="3" fill="#e6861a" opacity="0.8"/>
  <circle cx="864" cy="14" r="3" fill="#e6861a" opacity="0.8"/>
  <text x="440" y="19" text-anchor="middle" font-family="monospace" font-size="11" fill="#8b949e" letter-spacing="4" font-weight="bold">TECH STACK</text>
  <text x="24" y="56" font-family="monospace" font-size="12" fill="#3fb950" letter-spacing="2" font-weight="bold">LINGUAGGI</text>
  <line x1="24" y1="62" x2="856" y2="62" stroke="#3fb950" stroke-width="0.5" opacity="0.3"/>
  <rect x="164" y="66" width="87" height="28" rx="14" fill="#1a3a2a" stroke="#3fb950" stroke-width="0.8" opacity="0.9"/>
  <text x="207" y="85" text-anchor="middle" font-family="monospace" font-size="16" fill="#3fb950" font-weight="bold">Python</text>
  <rect x="259" y="66" width="102" height="28" rx="14" fill="#1a3a2a" stroke="#3fb950" stroke-width="0.8" opacity="0.9"/>
  <text x="310" y="84" text-anchor="middle" font-family="monospace" font-size="12" fill="#3fb950" font-weight="normal">JavaScript</text>
  <rect x="369" y="66" width="102" height="28" rx="14" fill="#1a3a2a" stroke="#3fb950" stroke-width="0.8" opacity="0.9"/>
  <text x="420" y="84" text-anchor="middle" font-family="monospace" font-size="12" fill="#3fb950" font-weight="normal">TypeScript</text>
  <rect x="479" y="66" width="55" height="28" rx="14" fill="#1a3a2a" stroke="#3fb950" stroke-width="0.8" opacity="0.9"/>
  <text x="506" y="83" text-anchor="middle" font-family="monospace" font-size="11" fill="#3fb950" font-weight="normal">HTML</text>
  <rect x="542" y="66" width="48" height="28" rx="14" fill="#1a3a2a" stroke="#3fb950" stroke-width="0.8" opacity="0.9"/>
  <text x="566" y="83" text-anchor="middle" font-family="monospace" font-size="11" fill="#3fb950" font-weight="normal">CSS</text>
  <rect x="598" y="66" width="62" height="28" rx="14" fill="#1a3a2a" stroke="#3fb950" stroke-width="0.8" opacity="0.9"/>
  <text x="629" y="83" text-anchor="middle" font-family="monospace" font-size="11" fill="#3fb950" font-weight="normal">Shell</text>
  <rect x="668" y="66" width="48" height="28" rx="14" fill="#1a3a2a" stroke="#3fb950" stroke-width="0.8" opacity="0.9"/>
  <text x="692" y="83" text-anchor="middle" font-family="monospace" font-size="11" fill="#3fb950" font-weight="normal">SQL</text>
  <text x="24" y="136" font-family="monospace" font-size="12" fill="#388bfd" letter-spacing="2" font-weight="bold">FRAMEWORK</text>
  <line x1="24" y1="142" x2="856" y2="142" stroke="#388bfd" stroke-width="0.5" opacity="0.3"/>
  <rect x="90" y="146" width="77" height="28" rx="14" fill="#1a2a3a" stroke="#388bfd" stroke-width="0.8" opacity="0.9"/>
  <text x="128" y="165" text-anchor="middle" font-family="monospace" font-size="16" fill="#388bfd" font-weight="bold">React</text>
  <rect x="175" y="146" width="84" height="28" rx="14" fill="#1a2a3a" stroke="#388bfd" stroke-width="0.8" opacity="0.9"/>
  <text x="217" y="164" text-anchor="middle" font-family="monospace" font-size="13" fill="#388bfd" font-weight="normal">FastAPI</text>
  <rect x="267" y="146" width="92" height="28" rx="14" fill="#1a2a3a" stroke="#388bfd" stroke-width="0.8" opacity="0.9"/>
  <text x="313" y="164" text-anchor="middle" font-family="monospace" font-size="13" fill="#388bfd" font-weight="normal">Firebase</text>
  <rect x="367" y="146" width="87" height="28" rx="14" fill="#1a2a3a" stroke="#388bfd" stroke-width="0.8" opacity="0.9"/>
  <text x="410" y="164" text-anchor="middle" font-family="monospace" font-size="12" fill="#388bfd" font-weight="normal">Pydantic</text>
  <rect x="462" y="146" width="147" height="28" rx="14" fill="#1a2a3a" stroke="#388bfd" stroke-width="0.8" opacity="0.9"/>
  <text x="535" y="164" text-anchor="middle" font-family="monospace" font-size="12" fill="#388bfd" font-weight="normal">Telegram Bot API</text>
  <rect x="617" y="146" width="109" height="28" rx="14" fill="#1a2a3a" stroke="#388bfd" stroke-width="0.8" opacity="0.9"/>
  <text x="671" y="163" text-anchor="middle" font-family="monospace" font-size="11" fill="#388bfd" font-weight="normal">Tailwind CSS</text>
  <rect x="734" y="146" width="55" height="28" rx="14" fill="#1a2a3a" stroke="#388bfd" stroke-width="0.8" opacity="0.9"/>
  <text x="761" y="163" text-anchor="middle" font-family="monospace" font-size="11" fill="#388bfd" font-weight="normal">Vite</text>
  <text x="24" y="216" font-family="monospace" font-size="12" fill="#e6861a" letter-spacing="2" font-weight="bold">AI / ML</text>
  <line x1="24" y1="222" x2="856" y2="222" stroke="#e6861a" stroke-width="0.5" opacity="0.3"/>
  <rect x="81" y="226" width="87" height="28" rx="14" fill="#3a2a1a" stroke="#e6861a" stroke-width="0.8" opacity="0.9"/>
  <text x="124" y="245" text-anchor="middle" font-family="monospace" font-size="16" fill="#e6861a" font-weight="bold">Pandas</text>
  <rect x="176" y="226" width="132" height="28" rx="14" fill="#3a2a1a" stroke="#e6861a" stroke-width="0.8" opacity="0.9"/>
  <text x="242" y="244" text-anchor="middle" font-family="monospace" font-size="14" fill="#e6861a" font-weight="bold">Scikit-learn</text>
  <rect x="316" y="226" width="71" height="28" rx="14" fill="#3a2a1a" stroke="#e6861a" stroke-width="0.8" opacity="0.9"/>
  <text x="351" y="244" text-anchor="middle" font-family="monospace" font-size="14" fill="#e6861a" font-weight="bold">NumPy</text>
  <rect x="395" y="226" width="57" height="28" rx="14" fill="#3a2a1a" stroke="#e6861a" stroke-width="0.8" opacity="0.9"/>
  <text x="423" y="244" text-anchor="middle" font-family="monospace" font-size="12" fill="#e6861a" font-weight="normal">YOLO</text>
  <rect x="460" y="226" width="72" height="28" rx="14" fill="#3a2a1a" stroke="#e6861a" stroke-width="0.8" opacity="0.9"/>
  <text x="496" y="244" text-anchor="middle" font-family="monospace" font-size="12" fill="#e6861a" font-weight="normal">Polars</text>
  <rect x="540" y="226" width="72" height="28" rx="14" fill="#3a2a1a" stroke="#e6861a" stroke-width="0.8" opacity="0.9"/>
  <text x="576" y="244" text-anchor="middle" font-family="monospace" font-size="12" fill="#e6861a" font-weight="normal">OpenCV</text>
  <rect x="620" y="226" width="102" height="28" rx="14" fill="#3a2a1a" stroke="#e6861a" stroke-width="0.8" opacity="0.9"/>
  <text x="671" y="244" text-anchor="middle" font-family="monospace" font-size="12" fill="#e6861a" font-weight="normal">Matplotlib</text>
  <rect x="730" y="226" width="68" height="28" rx="14" fill="#3a2a1a" stroke="#e6861a" stroke-width="0.8" opacity="0.9"/>
  <text x="764" y="243" text-anchor="middle" font-family="monospace" font-size="11" fill="#e6861a" font-weight="normal">Pillow</text>
  <text x="24" y="296" font-family="monospace" font-size="12" fill="#bc8cff" letter-spacing="2" font-weight="bold">DATABASE</text>
  <line x1="24" y1="302" x2="856" y2="302" stroke="#bc8cff" stroke-width="0.5" opacity="0.3"/>
  <rect x="348" y="306" width="107" height="28" rx="14" fill="#2a1a3a" stroke="#bc8cff" stroke-width="0.8" opacity="0.9"/>
  <text x="401" y="325" text-anchor="middle" font-family="monospace" font-size="16" fill="#bc8cff" font-weight="bold">Firebase</text>
  <rect x="463" y="306" width="68" height="28" rx="14" fill="#2a1a3a" stroke="#bc8cff" stroke-width="0.8" opacity="0.9"/>
  <text x="497" y="323" text-anchor="middle" font-family="monospace" font-size="11" fill="#bc8cff" font-weight="normal">SQLite</text>
  <text x="24" y="376" font-family="monospace" font-size="12" fill="#8b949e" letter-spacing="2" font-weight="bold">TOOL</text>
  <line x1="24" y1="382" x2="856" y2="382" stroke="#8b949e" stroke-width="0.5" opacity="0.3"/>
  <rect x="114" y="386" width="57" height="28" rx="14" fill="#1c2128" stroke="#8b949e" stroke-width="0.8" opacity="0.9"/>
  <text x="142" y="405" text-anchor="middle" font-family="monospace" font-size="16" fill="#8b949e" font-weight="bold">Git</text>
  <rect x="179" y="386" width="140" height="28" rx="14" fill="#1c2128" stroke="#8b949e" stroke-width="0.8" opacity="0.9"/>
  <text x="249" y="404" text-anchor="middle" font-family="monospace" font-size="13" fill="#8b949e" font-weight="normal">GitHub Actions</text>
  <rect x="327" y="386" width="72" height="28" rx="14" fill="#1c2128" stroke="#8b949e" stroke-width="0.8" opacity="0.9"/>
  <text x="363" y="404" text-anchor="middle" font-family="monospace" font-size="12" fill="#8b949e" font-weight="normal">Docker</text>
  <rect x="407" y="386" width="68" height="28" rx="14" fill="#1c2128" stroke="#8b949e" stroke-width="0.8" opacity="0.9"/>
  <text x="441" y="403" text-anchor="middle" font-family="monospace" font-size="11" fill="#8b949e" font-weight="normal">Pytest</text>
  <rect x="483" y="386" width="55" height="28" rx="14" fill="#1c2128" stroke="#8b949e" stroke-width="0.8" opacity="0.9"/>
  <text x="510" y="403" text-anchor="middle" font-family="monospace" font-size="11" fill="#8b949e" font-weight="normal">Ruff</text>
  <rect x="546" y="386" width="96" height="28" rx="14" fill="#1c2128" stroke="#8b949e" stroke-width="0.8" opacity="0.9"/>
  <text x="594" y="403" text-anchor="middle" font-family="monospace" font-size="11" fill="#8b949e" font-weight="normal">Playwright</text>
  <rect x="650" y="386" width="116" height="28" rx="14" fill="#1c2128" stroke="#8b949e" stroke-width="0.8" opacity="0.9"/>
  <text x="708" y="403" text-anchor="middle" font-family="monospace" font-size="11" fill="#8b949e" font-weight="normal">BeautifulSoup</text>
</svg>