<svg xmlns="http://www.w3.org/2000/svg" width="89" height="20" role="img" aria-label="forks: 24">
  <title>forks: 24</title>
  <linearGradient id="s" x2="0" y2="100%">
    <stop offset="0" stop-color="#bbb" stop-opacity=".1"/>
    <stop offset="1" stop-opacity=".1"/>
  </linearGradient>
  <clipPath id="r"><rect width="89" height="20" rx="3" fill="#fff"/></clipPath>
  <g clip-path="url(#r)">
    <rect width="60" height="20" fill="#555"/>
    <rect x="60" width="29" height="20" fill="#007ec6"/>
    <rect width="89" height="20" fill="url(#s)"/>
  </g>
  <path transform="translate(5.6,3.5) scale(0.8)" fill="#fff" d="M5 5.372v.878c0 .414.336.75.75.75h4.5a.75.75 0 0 0 .75-.75v-.878a2.25 2.25 0 1 1 1.5 0v.878a2.25 2.25 0 0 1-2.25 2.25h-1.5v2.128a2.251 2.251 0 1 1-1.5 0V8.5h-1.5A2.25 2.25 0 0 1 3.5 6.25v-.878a2.25 2.25 0 1 1 1.5 0ZM5 3.25a.75.75 0 1 0-1.5 0 .75.75 0 0 0 1.5 0Zm6.75.75a.75.75 0 1 0 0-1.5.75.75 0 0 0 0 1.5Zm-3 8.75a.75.75 0 1 0-1.5 0 .75.75 0 0 0 1.5 0Z"/>
  <g fill="#fff" text-anchor="middle" font-family="Verdana,Geneva,DejaVu Sans,sans-serif" font-size="11">
    <text x="40" y="15" fill="#010101" fill-opacity=".3">forks</text>
    <text x="40" y="14">forks</text>
    <text x="74" y="15" fill="#010101" fill-opacity=".3">24</text>
    <text x="74" y="14">24</text>
  </g>
</svg>